<?xml version="1.0" standalone="no"?><!DOCTYPE svg PUBLIC "-//W3C//DTD SVG 1.1//EN" "http://www.w3.org/Graphics/SVG/1.1/DTD/svg11.dtd"><svg t="1577472141942" class="icon" viewBox="0 0 1024 1024" version="1.1" xmlns="http://www.w3.org/2000/svg" p-id="2441" xmlns:xlink="http://www.w3.org/1999/xlink" width="48" height="48"><defs><style type="text/css"></style></defs><path d="M229.84920692443848 645.8345909118653l247.1923828125 247.1923828125c19.30572509765625 19.306497573852536 50.609550476074226 19.307270050048828 69.91527557373047 0l247.1923828125-247.1923828125c19.30572509765625-19.306497573852536 19.30572509765625-50.609550476074226 0-69.91682052612305-19.30572509765625-19.308815002441406-50.609550476074226-19.308815002441406-69.91527557373047 0l-162.79626846313477 162.79935836791992v-572.7856922149659c0-27.302398681640625-22.132987976074222-49.4384765625-49.4384765625-49.4384765625-27.30317115783691 0-49.4384765625 22.13607788085937-49.4384765625 49.4384765625v572.7856922149659l-162.79626846313477-162.79626846313477c-9.652862548828125-9.653635025024414-22.30602264404297-14.482383728027344-34.957637786865234-14.482383728027344-12.650842666625977 0-25.30400276184082 4.8264312744140625-34.956865310668945 14.479293823242186-19.307270050048828 19.310359954833984-19.307270050048828 50.609550476074226 0 69.91682052612305z" p-id="2442"></path></svg>