<?xml version="1.0" standalone="no"?><!DOCTYPE svg PUBLIC "-//W3C//DTD SVG 1.1//EN" "http://www.w3.org/Graphics/SVG/1.1/DTD/svg11.dtd"><svg t="1552382874885" class="icon" style="" viewBox="0 0 1107 1024" version="1.1" xmlns="http://www.w3.org/2000/svg" p-id="1418" xmlns:xlink="http://www.w3.org/1999/xlink" width="216.2109375" height="200"><defs><style type="text/css"></style></defs><path d="M553.967 0C248.01 0 0 195.231 0 436.04c0 223.685 214.083 407.92 489.757 433.017a33.708 33.708 0 0 1 22.512 14.705c12.237 20.145 3.542 63.069-5.96 111.197s42.169 23.149 53.6 17.576c9.1-4.415 243.31-136.444 382.742-265.921 101.963-79.1 165.25-189.02 165.25-310.558C1107.934 195.231 859.908 0 553.967 0zM369.311 550.157a29.545 29.545 0 0 1-29.78 29.276H238.257c-17.878 0-41.698-6.178-41.698-35.135v-216.55a29.528 29.528 0 0 1 29.78-29.277h5.959a29.528 29.528 0 0 1 29.78 29.276v187.275h77.438a29.545 29.545 0 0 1 29.796 29.276v5.859z m83.482-5.825a29.746 29.746 0 0 1-59.493 0V333.958a29.746 29.746 0 0 1 59.493 0v210.374z m262.01 0a32.92 32.92 0 0 1-29.78 29.276 33.708 33.708 0 0 1-35.102-16.787l-95.954-134.58v122.057a29.78 29.78 0 0 1-59.543 0V333.589a29.511 29.511 0 0 1 29.763-29.26 37.67 37.67 0 0 1 33.759 21.437c9.232 13.631 97.364 136.511 97.364 136.511V333.59a29.797 29.797 0 0 1 59.576 0v210.709z m178.696-134.614a29.276 29.276 0 1 1 0 58.552H816.06v46.819h77.438a29.276 29.276 0 1 1 0 58.536H777.35a26.557 26.557 0 0 1-26.859-26.322V330.702a26.557 26.557 0 0 1 26.86-26.339h116.148a29.276 29.276 0 1 1 0 58.536H816.06v46.835h77.438z" fill="#00C300" p-id="1419"></path></svg>