<?xml version="1.0" standalone="no"?><!DOCTYPE svg PUBLIC "-//W3C//DTD SVG 1.1//EN" "http://www.w3.org/Graphics/SVG/1.1/DTD/svg11.dtd"><svg t="1583657955888" class="icon" viewBox="0 0 1024 1024" version="1.1" xmlns="http://www.w3.org/2000/svg" p-id="6475" xmlns:xlink="http://www.w3.org/1999/xlink" width="48" height="48"><defs><style type="text/css"></style></defs><path d="M426.666667 533.333333a64 64 0 0 1 64 64v192a64 64 0 0 1-64 64h-192a64 64 0 0 1-64-64v-192a64 64 0 0 1 64-64h192z m416 202.666667v64H533.333333v-64h309.333334zM426.666667 597.333333h-192v192h192v-192z m416 0v64H533.333333v-64h309.333334zM426.666667 170.666667a64 64 0 0 1 64 64v192a64 64 0 0 1-64 64h-192a64 64 0 0 1-64-64v-192a64 64 0 0 1 64-64h192z m0 64h-192v192h192v-192z m416 128v64H533.333333v-64h309.333334z m0-138.666667v64H533.333333v-64h309.333334z" p-id="6476"></path></svg>