<?xml version="1.0" standalone="no"?><!DOCTYPE svg PUBLIC "-//W3C//DTD SVG 1.1//EN" "http://www.w3.org/Graphics/SVG/1.1/DTD/svg11.dtd"><svg t="1552382845109" class="icon" style="" viewBox="0 0 1024 1024" version="1.1" xmlns="http://www.w3.org/2000/svg" p-id="1070" xmlns:xlink="http://www.w3.org/1999/xlink" width="200" height="200"><defs><style type="text/css"></style></defs><path d="M645.453 192.696v-1.07h-1.197l1.197 1.07zM512.384 0a494.42 494.42 0 0 0-57.888 3.41c-46.492 5.243-91.062 16.814-132.96 33.628 0 0 345.44 340.634 354.648 353.3V27.076c-10.297-3.492-20.8-6.636-31.426-9.575C602.573 6.195 558.167 0 512.384 0z m133.07 192.696l-1.198-1.07h1.197v1.07z m184.8 184.617l0.588-0.818-0.588-0.797v1.615z m47.724-229.325c-13.842-13.803-28.352-26.552-43.334-38.379-36.633-29-76.34-52.316-117.844-69.868 0 0 2.548 484.127 0 499.59L974.643 282.44c-4.82-9.698-10.04-19.354-15.516-28.816-21.878-37.744-48.77-73.42-81.15-105.636z m-47.724 229.325v-1.615l0.714 0.797-0.714 0.818z m1.42 267.152v-1.07l-1.071 1.07h1.071z m155.104-321.73S645.016 666.9 632.212 676.054h364.606c3.515-10.26 6.66-20.736 9.557-31.314C1017.762 602.614 1024 558.5 1024 512.84c0-19.528-1.223-38.78-3.474-57.682-5.261-46.316-16.822-90.727-33.748-132.424z m-155.104 321.73h-1.071l1.071-1.07v1.07zM643.99 831.306h-1.512l0.735 0.776 0.777-0.776zM479.767 716.431l257.842 256.88a506.975 506.975 0 0 0 28.96-15.462c37.88-21.698 73.622-48.537 106.055-80.855 13.792-13.762 26.555-28.262 38.466-43.182 29.052-36.506 52.493-76.022 70.118-117.422 0.01 0-485.882 2.54-501.44 0.041zM643.99 831.306l-0.777 0.776-0.735-0.776h1.512z m-264.8 0.51h1.07l-1.07-1.07v1.07zM348.16 633.62v363.305c10.338 3.513 20.851 6.677 31.416 9.534 42.247 11.346 86.56 17.541 132.394 17.541 19.536 0 38.867-1.219 57.797-3.4a511.166 511.166 0 0 0 132.96-33.679c0.03 0-345.36-340.541-354.567-353.3z m31.03 198.196v-1.175l1.155 1.175h-1.156zM193.793 645.018v-1.594l-0.798 0.818 0.798 0.776zM50.176 739c4.829 9.82 10.038 19.415 15.515 28.857 21.782 37.785 48.722 73.44 81.139 105.717 13.799 13.804 28.348 26.502 43.328 38.308 36.67 29.051 76.228 52.316 117.861 69.878 0 0.02-2.63-484.147-0.144-499.65L50.175 739z m143.618-93.982l-0.798-0.776 0.798-0.818v1.594z m-0.931-265.708v0.88l0.987-0.88h-0.987z m-175.3 0.143C6.217 421.55 0 465.695 0 511.365c0 19.466 1.233 38.779 3.463 57.63 5.262 46.378 16.782 90.778 33.79 132.445 0 0 341.72-344.166 354.525-353.29H27.13c-3.514 10.209-6.659 20.736-9.567 31.303z m175.3-0.143h0.987l-0.987 0.88v-0.88z m186.116-185.803l-0.715 0.817h1.618l-0.903-0.817zM254.954 66.652c-37.941 21.75-73.704 48.6-106.045 80.824-13.935 13.845-26.647 28.345-38.527 43.193-29.104 36.505-52.493 76.063-70.159 117.504 0 0 485.995-2.58 501.502-0.092L283.915 51.2c-9.805 4.884-19.496 9.994-28.96 15.452zM378.98 193.507l0.903 0.817h-1.618l0.715-0.817z" fill="#6EBC57" p-id="1071"></path></svg>